# xmcd
#
# Track frame offsets: 
#        150
#        22650
#        43500
#        59526
#        80413
#
# Disc length: 1314 seconds
#
# Revision: 0
# Processed by: cddbd v1.5.2PL0 Copyright (c) Steve Scherf et al.
# Submitted via: ExactAudioCopy v0.99pb5
#
DISCID=31052005
DTITLE=Folk Noir - Songs from Home Nr. 1
DYEAR=2011
DGENRE=Folk
TTITLE0=You should have seen me there
TTITLE1=The songs in mariees hands
TTITLE2=She moves through the fair
TTITLE3=The ragged wood
TTITLE4=The road
EXTD=
EXTT0=
EXTT1=
EXTT2=
EXTT3=
EXTT4=
PLAYORDER=
